HIERARCHY
ROOT Hips
{
	OFFSET 0.00000 0.00000 0.00000
	CHANNELS 6 Xposition Yposition Zposition Zrotation Yrotation Xrotation 
	JOINT LHipJoint
	{
		OFFSET 0 0 0
		CHANNELS 3 Zrotation Yrotation Xrotation
		JOINT LeftUpLeg
		{
			OFFSET 1.53139 -1.83434 0.76626
			CHANNELS 3 Zrotation Yrotation Xrotation
			JOINT LeftLeg
			{
				OFFSET 2.56112 -7.03663 0.00000
				CHANNELS 3 Zrotation Yrotation Xrotation
				JOINT LeftFoot
				{
					OFFSET 2.59983 -7.14299 0.00000
					CHANNELS 3 Zrotation Yrotation Xrotation
					JOINT LeftToeBase
					{
						OFFSET 0.13742 -0.37757 2.00054
						CHANNELS 3 Zrotation Yrotation Xrotation
						End Site
						{
							OFFSET 0.00000 -0.00000 1.02897
						}
					}
				}
			}
		}
	}
	JOINT RHipJoint
	{
		OFFSET 0 0 0
		CHANNELS 3 Zrotation Yrotation Xrotation
		JOINT RightUpLeg
		{
			OFFSET -1.40122 -1.83435 0.76627
			CHANNELS 3 Zrotation Yrotation Xrotation
			JOINT RightLeg
			{
				OFFSET -2.54052 -6.98003 0.00000
				CHANNELS 3 Zrotation Yrotation Xrotation
				JOINT RightFoot
				{
					OFFSET -2.63179 -7.23079 0.00000
					CHANNELS 3 Zrotation Yrotation Xrotation
					JOINT RightToeBase
					{
						OFFSET -0.24131 -0.66299 2.03908
						CHANNELS 3 Zrotation Yrotation Xrotation
						End Site
						{
							OFFSET -0.00000 -0.00000 1.07391
						}
					}
				}
			}
		}
	}
	JOINT LowerBack
	{
		OFFSET 0 0 0
		CHANNELS 3 Zrotation Yrotation Xrotation
		JOINT Spine
		{
			OFFSET 0.01174 2.10302 -0.29778
			CHANNELS 3 Zrotation Yrotation Xrotation
			JOINT Spine1
			{
				OFFSET 0.00772 2.13227 -0.01247
				CHANNELS 3 Zrotation Yrotation Xrotation
				JOINT Neck
				{
					OFFSET 0 0 0
					CHANNELS 3 Zrotation Yrotation Xrotation
					JOINT Neck1
					{
						OFFSET -0.09219 1.60848 0.31481
						CHANNELS 3 Zrotation Yrotation Xrotation
						JOINT Head
						{
							OFFSET 0.13974 1.65456 -0.31134
							CHANNELS 3 Zrotation Yrotation Xrotation
							End Site
							{
								OFFSET 0.04742 1.69515 -0.14578
							}
						}
					}
				}
				JOINT LeftShoulder
				{
					OFFSET 0 0 0
					CHANNELS 3 Zrotation Yrotation Xrotation
					JOINT LeftArm
					{
						OFFSET 3.24909 1.02882 -0.23993
						CHANNELS 3 Zrotation Yrotation Xrotation
						JOINT LeftForeArm
						{
							OFFSET 5.32955 -0.00000 -0.00000
							CHANNELS 3 Zrotation Yrotation Xrotation
							JOINT LeftHand
							{
								OFFSET 3.69232 -0.00000 -0.00000
								CHANNELS 3 Zrotation Yrotation Xrotation
								JOINT LeftFingerBase
								{
									OFFSET 0 0 0
									CHANNELS 3 Zrotation Yrotation Xrotation
									JOINT LeftHandIndex1
									{
										OFFSET 0.53660 -0.00000 -0.00000
										CHANNELS 3 Zrotation Yrotation Xrotation
										End Site
										{
											OFFSET 0.43262 -0.00000 -0.00000
										}
									}
								}
								JOINT LThumb
								{
									OFFSET 0 0 0
									CHANNELS 3 Zrotation Yrotation Xrotation
									End Site
									{
										OFFSET 0.43922 -0.00000 0.43922
									}
								}
							}
						}
					}
				}
				JOINT RightShoulder
				{
					OFFSET 0 0 0
					CHANNELS 3 Zrotation Yrotation Xrotation
					JOINT RightArm
					{
						OFFSET -3.21387 0.93002 -0.34594
						CHANNELS 3 Zrotation Yrotation Xrotation
						JOINT RightForeArm
						{
							OFFSET -5.23431 -0.00000 0.00000
							CHANNELS 3 Zrotation Yrotation Xrotation
							JOINT RightHand
							{
								OFFSET -3.55301 -0.00000 -0.00000
								CHANNELS 3 Zrotation Yrotation Xrotation
								JOINT RightFingerBase
								{
									OFFSET 0 0 0
									CHANNELS 3 Zrotation Yrotation Xrotation
									JOINT RightHandIndex1
									{
										OFFSET -0.77252 -0.00000 -0.00000
										CHANNELS 3 Zrotation Yrotation Xrotation
										End Site
										{
											OFFSET -0.62283 -0.00000 -0.00000
										}
									}
								}
								JOINT RThumb
								{
									OFFSET 0 0 0
									CHANNELS 3 Zrotation Yrotation Xrotation
									End Site
									{
										OFFSET -0.63234 -0.00000 0.63234
									}
								}
							}
						}
					}
				}
			}
		}
	}
}
MOTION
Frames: 5
Frame Time: .0083333
10.6227 17.9269 10.7775 2.1304 -9.2623 0.3996 0.0000 0.0000 0.0000 -17.3540 -12.6311 -7.8411 2.1571 9.1860 26.3788 -1.6744 -27.9520 -7.9635 0.2903 -3.4649 -9.5760 0.0000 0.0000 0.0000 23.2721 -1.5910 -7.3589 -2.4181 -9.6874 27.9704 -0.5366 14.6555 -15.5595 -0.8582 -5.9077 16.5167 0.1030 0.7053 12.4637 2.7107 1.1312 0.4210 2.6028 0.5913 -6.6119 -10.8942 -6.4193 -8.0460 8.9128 -11.2447 41.3626 4.1364 -5.2917 17.9704 -0.0000 0.0000 0.0000 -84.7808 6.1952 61.2702 96.1820 -59.8551 -65.3511 -0.0000 0.0000 -35.8668 25.8459 28.6853 13.0896 -7.1250 0.0000 -0.0000 -5.7858 61.1860 -2.2852 -0.0000 0.0000 0.0000 78.9917 -6.9471 56.4809 -99.6352 59.6463 -68.3344 0.0000 -0.0000 -12.2743 -19.8465 13.8821 -4.9494 7.1250 -0.0000 -0.0000 5.1768 -15.2991 3.6425
10.6317 17.9265 10.8037 2.1846 -9.8984 0.3895 0.0000 0.0000 0.0000 -17.5366 -12.6643 -7.8555 2.0668 9.0038 25.8074 -2.0920 -29.1424 -5.9700 0.1006 -2.0459 -5.6324 0.0000 0.0000 0.0000 23.1570 -1.3682 -7.1732 -2.4106 -9.6734 27.9255 -0.5349 14.8654 -15.6367 -0.8075 -5.7347 16.0165 0.0931 0.6811 12.4038 2.7094 1.0963 0.4142 2.6135 0.5743 -6.5841 -10.8348 -6.3231 -8.0375 8.8354 -11.0972 41.3857 4.1162 -5.2370 17.9417 -0.0000 -0.0000 0.0000 -84.7347 6.1400 61.3453 96.1183 -59.8581 -65.2961 -0.0000 0.0000 -35.5520 25.3220 28.7185 12.8091 -7.1250 0.0000 -0.0000 -6.4130 61.0885 -2.5192 -0.0000 -0.0000 0.0000 79.0978 -7.0143 56.5187 -99.8751 59.6283 -68.5414 0.0000 -0.0000 -12.3085 -20.1558 13.7523 -4.9869 7.1250 -0.0000 -0.0000 4.9603 -15.4050 3.4777
10.6375 17.9245 10.8306 2.2413 -10.5589 0.3508 0.0000 0.0000 0.0000 -17.7130 -12.5836 -7.8595 1.9890 8.8430 25.3055 -2.4657 -30.0414 -3.9234 0.0039 0.4043 1.1109 0.0000 0.0000 0.0000 23.0721 -1.0671 -6.9144 -2.3960 -9.6463 27.8387 -0.5312 14.9914 -15.6608 -0.7820 -5.6455 15.7594 -0.0053 0.6530 12.3485 2.7610 1.0471 0.4234 2.7330 0.5537 -6.5438 -10.8676 -6.2365 -8.0686 8.7249 -10.9241 41.4086 4.1000 -5.1891 17.9249 0.0000 -0.0000 0.0000 -84.7831 6.0448 61.3900 95.9989 -59.8636 -65.1928 -0.0000 0.0000 -35.5054 25.4135 28.2595 12.6780 -7.1250 0.0000 -0.0000 -6.0713 60.6357 -2.3191 0.0000 -0.0000 0.0000 79.0863 -6.9876 56.6335 -99.9355 59.6237 -68.5936 0.0000 -0.0000 -12.4720 -20.2845 13.6353 -4.9796 7.1250 -0.0000 -0.0000 4.8679 -15.5154 3.4008
10.6435 17.9223 10.8647 2.2270 -11.3109 0.3087 0.0000 0.0000 0.0000 -17.8216 -12.5584 -7.8012 1.9198 8.6970 24.8521 -2.8600 -30.8073 -1.2929 0.0054 0.4724 1.2981 0.0000 0.0000 0.0000 23.0520 -0.6960 -6.5798 -2.3827 -9.6214 27.7591 -0.5383 15.1665 -15.7993 -0.7277 -5.4503 15.1976 -0.0320 0.6673 12.2480 2.8254 1.0647 0.4199 2.8137 0.5638 -6.4939 -10.9764 -6.1610 -8.0214 8.7335 -10.8169 41.4913 4.1480 -5.1695 17.9543 0.0000 0.0000 0.0000 -84.8058 6.0630 61.4625 95.9967 -59.8637 -65.1909 -0.0000 0.0000 -35.3416 25.4086 27.9812 12.5642 -7.1250 0.0000 -0.0000 -5.9387 60.3455 -2.2272 0.0000 0.0000 0.0000 79.0349 -7.0805 56.7450 -100.2095 59.6025 -68.8299 0.0000 -0.0000 -12.5743 -20.6179 13.7089 -5.0952 7.1250 -0.0000 -0.0000 4.6420 -15.4044 3.2530
10.6513 17.9166 10.8971 2.0480 -12.0448 0.3162 0.0000 0.0000 0.0000 -17.7403 -12.6207 -7.7361 1.8577 8.5632 24.4382 -3.1388 -31.2888 0.8936 0.0413 1.3114 3.6061 0.0000 0.0000 0.0000 23.1985 -0.4059 -6.2980 -2.3693 -9.5962 27.6788 -0.5734 15.2738 -16.1416 -0.6059 -4.9824 13.8583 0.1541 0.6779 12.1941 2.8813 1.1086 0.3694 2.7600 0.5807 -6.5171 -11.0276 -6.0862 -7.8405 8.7455 -10.7364 41.5450 4.1841 -5.1556 17.9299 -0.0000 0.0000 0.0000 -84.7053 6.1528 61.6276 96.1508 -59.8566 -65.3242 -0.0000 0.0000 -35.0624 25.3623 27.8688 12.4940 -7.1250 0.0000 -0.0000 -5.9369 60.2174 -2.2084 -0.0000 0.0000 0.0000 79.0533 -7.2854 56.8178 -100.6297 59.5687 -69.1923 0.0000 -0.0000 -12.6146 -21.0278 13.9386 -5.2905 7.1250 -0.0000 -0.0000 4.3709 -15.1194 3.0886
